<svg xmlns="http://www.w3.org/2000/svg" xmlns:xlink="http://www.w3.org/1999/xlink" width="1200" height="1200" viewBox="0 0 1200 1200"><g><svg viewBox="0 0 99.999997 99.999997"><g transform="translate(-149.6453,-589.21878)"><path d="m 199.64552,591.21879 a 48.000099,48.000099 0 0 0 -48.00022,48.00022 48.000099,48.000099 0 0 0 48.00022,47.99977 48.000099,48.000099 0 0 0 47.99977,-47.99977 48.000099,48.000099 0 0 0 -47.99977,-48.00022 z m 0,5.42088 a 42.107528,42.578935 0 0 1 42.10718,42.57934 42.107528,42.578935 0 0 1 -42.10718,42.57887 42.107528,42.578935 0 0 1 -42.10763,-42.57887 42.107528,42.578935 0 0 1 42.10763,-42.57934 z" fill="#7400B3"></path></g></svg><g transform="translate(600 600) scale(0.69 0.69) rotate(0) translate(-600 -600)" style="fill:#8500CC"><svg fill="#8500CC" xmlns="http://www.w3.org/2000/svg" xmlns:xlink="http://www.w3.org/1999/xlink" version="1.1" x="0px" y="0px" viewBox="0 0 100 100" enable-background="new 0 0 100 100" xml:space="preserve"><g><path fill="none" d="M74.5,66h-3.8v-3.8c0-0.5-0.4-0.8-0.8-0.8c-0.5,0-0.8,0.4-0.8,0.8V66h-3.8c-0.5,0-0.8,0.4-0.8,0.8   c0,0.5,0.4,0.8,0.8,0.8H69v3.8c0,0.5,0.4,0.8,0.8,0.8c0.5,0,0.8-0.4,0.8-0.8v-3.8h3.8c0.5,0,0.8-0.4,0.8-0.8   C75.3,66.4,74.9,66,74.5,66z"></path><ellipse cx="50.1" cy="34.3" rx="25.9" ry="14"></ellipse><path d="M50.1,58.7c14.3,0,25.9-6.3,25.9-14c0-1-0.2-2-0.6-3c-2.5,6.3-12.9,11-25.3,11s-22.8-4.7-25.3-11c-0.4,1-0.6,2-0.6,3   C24.2,52.4,35.8,58.7,50.1,58.7z"></path><path d="M72.2,56.3c1.2,0.3,2.2,0.8,3.2,1.4c0.3-0.8,0.4-1.7,0.4-2.5c0-1-0.2-2-0.6-3C74.6,53.7,73.6,55.1,72.2,56.3z"></path><path d="M49.9,69.2c3.2,0,6.2-0.3,9.1-0.9c-0.1-0.5-0.1-1-0.1-1.5c0-1.7,0.4-3.3,1.1-4.7c-3.1,0.7-6.5,1.1-10,1.1   c-12.4,0-22.8-4.7-25.3-11c-0.4,1-0.6,2-0.6,3C24,62.9,35.6,69.2,49.9,69.2z"></path><path d="M60.5,72.4c-3.2,0.8-6.8,1.2-10.6,1.2c-12.4,0-22.8-4.7-25.3-11c-0.4,1-0.6,2-0.6,3c0,7.7,11.6,14,25.9,14   c5.9,0,11.4-1.1,15.8-2.9C63.5,75.9,61.7,74.4,60.5,72.4z"></path><path d="M69.8,58.5c-4.6,0-8.4,3.7-8.4,8.2c0,4.5,3.7,8.2,8.4,8.2c4.6,0,8.4-3.7,8.4-8.2C78.1,62.2,74.4,58.5,69.8,58.5z    M74.5,67.7h-3.8v3.8c0,0.5-0.4,0.8-0.8,0.8c-0.5,0-0.8-0.4-0.8-0.8v-3.8h-3.8c-0.5,0-0.8-0.4-0.8-0.8c0-0.5,0.4-0.8,0.8-0.8H69   v-3.8c0-0.5,0.4-0.8,0.8-0.8c0.5,0,0.8,0.4,0.8,0.8V66h3.8c0.5,0,0.8,0.4,0.8,0.8C75.3,67.3,74.9,67.7,74.5,67.7z"></path></g></svg></g></g></svg>